<svg xmlns="http://www.w3.org/2000/svg" xmlns:xlink="http://www.w3.org/1999/xlink" width="500" zoomAndPan="magnify" viewBox="0 0 375 374.999991" height="500" preserveAspectRatio="xMidYMid meet" version="1.0"><defs><g/><clipPath id="0c65512a09"><rect x="0" width="92" y="0" height="167"/></clipPath><clipPath id="15f60cba67"><rect x="0" width="29" y="0" height="41"/></clipPath><clipPath id="f319865851"><rect x="0" width="178" y="0" height="168"/></clipPath></defs><g transform="matrix(1, 0, 0, 1, 43, 104)"><g clip-path="url(#0c65512a09)"><g fill="#000000" fill-opacity="1"><g transform="translate(0.575467, 131.90654)"><g><path d="M 88.078125 -74.125 L 88.078125 -13.546875 C 88.078125 0.222656 84.335938 10.550781 76.859375 17.4375 C 69.378906 24.320312 58.617188 27.765625 44.578125 27.765625 C 37.285156 27.765625 30.445312 26.941406 24.0625 25.296875 C 17.6875 23.660156 12.265625 21.242188 7.796875 18.046875 L 17.234375 -0.140625 C 20.242188 2.328125 24.050781 4.265625 28.65625 5.671875 C 33.257812 7.085938 37.796875 7.796875 42.265625 7.796875 C 49.097656 7.796875 54.109375 6.289062 57.296875 3.28125 C 60.492188 0.269531 62.09375 -4.195312 62.09375 -10.125 L 62.09375 -12.578125 C 57.070312 -6.742188 49.734375 -3.828125 40.078125 -3.828125 C 33.503906 -3.828125 27.4375 -5.304688 21.875 -8.265625 C 16.320312 -11.234375 11.898438 -15.429688 8.609375 -20.859375 C 5.328125 -26.285156 3.6875 -32.550781 3.6875 -39.65625 C 3.6875 -46.675781 5.328125 -52.898438 8.609375 -58.328125 C 11.898438 -63.753906 16.320312 -67.945312 21.875 -70.90625 C 27.4375 -73.875 33.503906 -75.359375 40.078125 -75.359375 C 50.648438 -75.359375 58.398438 -71.9375 63.328125 -65.09375 L 63.328125 -74.125 Z M 46.234375 -24.484375 C 50.878906 -24.484375 54.726562 -25.894531 57.78125 -28.71875 C 60.832031 -31.539062 62.359375 -35.1875 62.359375 -39.65625 C 62.359375 -44.125 60.851562 -47.75 57.84375 -50.53125 C 54.84375 -53.3125 50.972656 -54.703125 46.234375 -54.703125 C 41.484375 -54.703125 37.582031 -53.3125 34.53125 -50.53125 C 31.476562 -47.75 29.953125 -44.125 29.953125 -39.65625 C 29.953125 -35.1875 31.5 -31.539062 34.59375 -28.71875 C 37.695312 -25.894531 41.578125 -24.484375 46.234375 -24.484375 Z M 46.234375 -24.484375 "/></g></g></g></g></g><g transform="matrix(1, 0, 0, 1, 288, 119)"><g clip-path="url(#15f60cba67)"><g fill="#000000" fill-opacity="1"><g transform="translate(0.756499, 32.063049)"><g><path d="M 12.546875 -22.734375 C 14.679688 -22.734375 16.613281 -22.238281 18.34375 -21.25 C 20.082031 -20.257812 21.445312 -18.894531 22.4375 -17.15625 C 23.4375 -15.425781 23.9375 -13.503906 23.9375 -11.390625 C 23.9375 -9.273438 23.425781 -7.335938 22.40625 -5.578125 C 21.394531 -3.816406 20.015625 -2.429688 18.265625 -1.421875 C 16.523438 -0.410156 14.597656 0.09375 12.484375 0.09375 C 10.367188 0.09375 8.441406 -0.410156 6.703125 -1.421875 C 4.972656 -2.429688 3.601562 -3.8125 2.59375 -5.5625 C 1.59375 -7.3125 1.09375 -9.234375 1.09375 -11.328125 C 1.09375 -13.410156 1.59375 -15.328125 2.59375 -17.078125 C 3.601562 -18.828125 4.976562 -20.207031 6.71875 -21.21875 C 8.46875 -22.226562 10.410156 -22.734375 12.546875 -22.734375 Z M 19.046875 -5.203125 C 19.785156 -6.023438 20.347656 -6.960938 20.734375 -8.015625 C 21.117188 -9.078125 21.3125 -10.203125 21.3125 -11.390625 C 21.3125 -13.066406 20.9375 -14.578125 20.1875 -15.921875 C 19.445312 -17.273438 18.410156 -18.335938 17.078125 -19.109375 C 15.742188 -19.890625 14.234375 -20.28125 12.546875 -20.28125 C 10.867188 -20.28125 9.351562 -19.882812 8 -19.09375 C 6.65625 -18.3125 5.601562 -17.234375 4.84375 -15.859375 C 4.09375 -14.492188 3.71875 -12.984375 3.71875 -11.328125 C 3.71875 -9.660156 4.09375 -8.140625 4.84375 -6.765625 C 5.601562 -5.398438 6.648438 -4.320312 7.984375 -3.53125 C 9.328125 -2.75 10.828125 -2.359375 12.484375 -2.359375 C 13.773438 -2.359375 14.972656 -2.597656 16.078125 -3.078125 C 17.191406 -3.566406 18.148438 -4.253906 18.953125 -5.140625 L 15.046875 -5.140625 L 12.875 -8.5 L 11.359375 -8.5 L 11.359375 -5.140625 L 7.375 -5.140625 L 7.375 -17.5 L 13 -17.5 C 14.726562 -17.5 16.085938 -17.09375 17.078125 -16.28125 C 18.066406 -15.476562 18.5625 -14.382812 18.5625 -13 C 18.5625 -11.226562 17.851562 -9.96875 16.4375 -9.21875 Z M 12.75 -11.359375 C 13.320312 -11.359375 13.773438 -11.5 14.109375 -11.78125 C 14.453125 -12.070312 14.625 -12.476562 14.625 -13 C 14.625 -13.519531 14.460938 -13.925781 14.140625 -14.21875 C 13.816406 -14.507812 13.351562 -14.65625 12.75 -14.65625 L 11.359375 -14.65625 L 11.359375 -11.359375 Z M 12.75 -11.359375 "/></g></g></g></g></g><g transform="matrix(1, 0, 0, 1, 127, 103)"><g clip-path="url(#f319865851)"><g fill="#000000" fill-opacity="1"><g transform="translate(0.752682, 132.441003)"><g><path d="M 8.34375 -101.484375 L 34.328125 -101.484375 L 34.328125 0 L 8.34375 0 Z M 8.34375 -101.484375 "/></g></g></g><g fill="#000000" fill-opacity="1"><g transform="translate(34.533455, 132.441003)"><g><path d="M 45.546875 1.234375 C 37.609375 1.234375 30.445312 -0.40625 24.0625 -3.6875 C 17.6875 -6.96875 12.695312 -11.523438 9.09375 -17.359375 C 5.488281 -23.203125 3.6875 -29.816406 3.6875 -37.203125 C 3.6875 -44.492188 5.488281 -51.054688 9.09375 -56.890625 C 12.695312 -62.722656 17.664062 -67.257812 24 -70.5 C 30.332031 -73.738281 37.515625 -75.359375 45.546875 -75.359375 C 53.566406 -75.359375 60.765625 -73.738281 67.140625 -70.5 C 73.523438 -67.257812 78.492188 -62.742188 82.046875 -56.953125 C 85.609375 -51.171875 87.390625 -44.585938 87.390625 -37.203125 C 87.390625 -29.816406 85.609375 -23.203125 82.046875 -17.359375 C 78.492188 -11.523438 73.523438 -6.96875 67.140625 -3.6875 C 60.765625 -0.40625 53.566406 1.234375 45.546875 1.234375 Z M 45.546875 -19.421875 C 50.097656 -19.421875 53.832031 -20.992188 56.75 -24.140625 C 59.675781 -27.285156 61.140625 -31.640625 61.140625 -37.203125 C 61.140625 -42.671875 59.675781 -46.953125 56.75 -50.046875 C 53.832031 -53.148438 50.097656 -54.703125 45.546875 -54.703125 C 40.984375 -54.703125 37.242188 -53.148438 34.328125 -50.046875 C 31.410156 -46.953125 29.953125 -42.671875 29.953125 -37.203125 C 29.953125 -31.640625 31.410156 -27.285156 34.328125 -24.140625 C 37.242188 -20.992188 40.984375 -19.421875 45.546875 -19.421875 Z M 45.546875 -19.421875 "/></g></g></g><g fill="#000000" fill-opacity="1"><g transform="translate(116.592753, 132.441003)"><g><path d="M 59.5 -3.015625 C 57.300781 -1.640625 54.628906 -0.585938 51.484375 0.140625 C 48.347656 0.867188 45 1.234375 41.4375 1.234375 C 31.769531 1.234375 24.335938 -1.132812 19.140625 -5.875 C 13.941406 -10.625 11.34375 -17.691406 11.34375 -27.078125 L 11.34375 -51.96875 L 0.546875 -51.96875 L 0.546875 -71.390625 L 11.34375 -71.390625 L 11.34375 -90.671875 L 37.34375 -90.671875 L 37.34375 -71.390625 L 54.296875 -71.390625 L 54.296875 -51.96875 L 37.34375 -51.96875 L 37.34375 -27.359375 C 37.34375 -24.710938 38.046875 -22.632812 39.453125 -21.125 C 40.867188 -19.625 42.757812 -18.875 45.125 -18.875 C 48.132812 -18.875 50.78125 -19.648438 53.0625 -21.203125 Z M 59.5 -3.015625 "/></g></g></g></g></g></svg>